<?xml version="1.0" encoding="UTF-8" standalone="no"?>
<!-- Created with Inkscape (http://www.inkscape.org/) -->

<svg
   version="1.1"
   id="svg2"
   width="78.991997"
   height="68.865334"
   viewBox="0 0 78.991997 68.865334"
   sodipodi:docname="security_logo.svg"
   inkscape:version="1.2.2 (732a01da63, 2022-12-09)"
   xmlns:inkscape="http://www.inkscape.org/namespaces/inkscape"
   xmlns:sodipodi="http://sodipodi.sourceforge.net/DTD/sodipodi-0.dtd"
   xmlns="http://www.w3.org/2000/svg"
   xmlns:svg="http://www.w3.org/2000/svg">
  <defs
     id="defs6" />
  <sodipodi:namedview
     id="namedview4"
     pagecolor="#ffffff"
     bordercolor="#999999"
     borderopacity="1"
     inkscape:showpageshadow="0"
     inkscape:pageopacity="0"
     inkscape:pagecheckerboard="0"
     inkscape:deskcolor="#d1d1d1"
     showgrid="false"
     showguides="false"
     inkscape:zoom="12.154156"
     inkscape:cx="39.533802"
     inkscape:cy="34.473805"
     inkscape:window-width="1920"
     inkscape:window-height="1017"
     inkscape:window-x="-8"
     inkscape:window-y="-8"
     inkscape:window-maximized="1"
     inkscape:current-layer="g10">
    <inkscape:page
       x="0"
       y="0"
       id="page8"
       width="78.991997"
       height="68.865334" />
  </sodipodi:namedview>
  <g
     id="g10"
     inkscape:groupmode="layer"
     inkscape:label="Page 1"
     transform="matrix(1.3333333,0,0,-1.3333333,0,68.865333)">
    <g
       id="g12"
       transform="translate(29.622,25.824)">
      <g
         id="g14">
        <g
           id="g16">
          <g
             id="g18">
            <g
               id="g20">
              <path
                 d="M 14.17339,24.5491 H -14.17339 L -28.3468,0 -14.17339,-24.5491 H 14.17339 L 28.3468,0 Z"
                 style="fill:none;stroke:#9fba36;stroke-width:2.5511;stroke-linecap:butt;stroke-linejoin:miter;stroke-miterlimit:10;stroke-dasharray:none;stroke-opacity:1"
                 id="path22" />
            </g>
            <g
               id="g24">
              <g
                 id="g26" />
            </g>
          </g>
          <g
             id="g28">
            <path
               d="M -14.72876,8.50412 17.18343,-9.92111"
               style="fill:none;stroke:#9fba36;stroke-width:2.5511;stroke-linecap:butt;stroke-linejoin:miter;stroke-miterlimit:10;stroke-dasharray:none;stroke-opacity:1"
               id="path30" />
          </g>
          <g
             id="g32">
            <path
               d="m 18.9029,-10.91356 c 0.62623,1.08469 -1.28413,3.35999 -4.26694,5.08212 -2.98282,1.72213 -5.90848,2.23886 -6.53472,1.15419 -0.62622,-1.08467 1.28412,-3.35998 4.26694,-5.0821 2.98283,-1.72214 5.90848,-2.23888 6.53472,-1.15421 z"
               style="fill:#9fba36;fill-opacity:1;fill-rule:nonzero;stroke:#9fba36;stroke-width:0.3985;stroke-linecap:butt;stroke-linejoin:miter;stroke-miterlimit:10;stroke-dasharray:none;stroke-opacity:1"
               id="path34" />
          </g>
          <g
             id="g36">
            <path
               d="m 8.03654,3.54333 c 0,7.82786 -6.34554,14.17339 -14.17338,14.17339 -7.82784,0 -14.17339,-6.34553 -14.17339,-14.17339 0,-7.82783 6.34555,-14.17338 14.17339,-14.17338 7.82784,0 14.17338,6.34555 14.17338,14.17338 z"
               style="fill:#ffffff;fill-opacity:1;fill-rule:nonzero;stroke:#9fba36;stroke-width:2.5511;stroke-linecap:butt;stroke-linejoin:miter;stroke-miterlimit:10;stroke-dasharray:none;stroke-opacity:1"
               id="path38" />
            <g
               id="g40">
              <g
                 id="g42"
                 transform="translate(-12.572,-3.997)">
                <g
                   id="g44">
                  <g
                     id="g46"
                     transform="translate(6.435,5.869)">
                    <g
                       id="g48">
                      <g
                         id="g50">
                        <g
                           id="g52">
                          <path
                             d="m -6.23631,-4.67299 v 7.92854 c 0,0.55024 0.44604,0.99628 0.99627,0.99628 H 5.24004 c 0.55023,0 0.99627,-0.44604 0.99627,-0.99628 v -7.92854 c 0,-0.55023 -0.44604,-0.99628 -0.99627,-0.99628 H -5.24004 c -0.55023,0 -0.99627,0.44605 -0.99627,0.99628 z"
                             style="fill:#9fba36;fill-opacity:1;fill-rule:nonzero;stroke:#9fba36;stroke-width:0.3985;stroke-linecap:butt;stroke-linejoin:miter;stroke-miterlimit:10;stroke-dasharray:none;stroke-opacity:1"
                             id="path54" />
                        </g>
                        <g
                           id="g56">
                          <path
                             d="m 3.40146,4.53558 c 0,1.8786 -1.52287,3.40148 -3.40146,3.40148 -1.87859,0 -3.40146,-1.52288 -3.40146,-3.40148 0,-1.8786 1.52287,-3.40147 3.40146,-3.40147 1.87859,0 3.40146,1.52287 3.40146,3.40147 z"
                             style="fill:none;stroke:#9fba36;stroke-width:2.5511;stroke-linecap:butt;stroke-linejoin:miter;stroke-miterlimit:10;stroke-dasharray:none;stroke-opacity:1"
                             id="path58" />
                          <g
                             id="g60">
                            <g
                               id="g62"
                               transform="translate(0,4.535)">
                              <g
                                 id="g64" />
                              <g
                                 id="g66"
                                 transform="translate(0,-4.535)" />
                            </g>
                          </g>
                        </g>
                        <g
                           id="g68">
                          <path
                             d="M 1.70073,0.85036 C 1.70073,1.78966 0.93929,2.5511 0,2.5511 c -0.93929,0 -1.70073,-0.76144 -1.70073,-1.70074 0,-0.93929 0.76144,-1.70072 1.70073,-1.70072 0.93929,0 1.70073,0.76143 1.70073,1.70072 z"
                             style="fill:#ffffff;fill-opacity:1;fill-rule:nonzero;stroke:#9fba36;stroke-width:0.3985;stroke-linecap:butt;stroke-linejoin:miter;stroke-miterlimit:10;stroke-dasharray:none;stroke-opacity:1"
                             id="path70" />
                          <g
                             id="g72">
                            <g
                               id="g74"
                               transform="translate(0,0.85)">
                              <g
                                 id="g76" />
                              <g
                                 id="g78"
                                 transform="translate(0,-0.85)" />
                            </g>
                          </g>
                        </g>
                        <g
                           id="g80">
                          <path
                             d="m -0.70848,-2.3367 v 3.25597 c 0,0.27511 0.22302,0.49813 0.49814,0.49813 h 0.42068 c 0.27512,0 0.49814,-0.22302 0.49814,-0.49813 V -2.3367 c 0,-0.27512 -0.22302,-0.49814 -0.49814,-0.49814 h -0.42068 c -0.27512,0 -0.49814,0.22302 -0.49814,0.49814 z"
                             style="fill:#ffffff;fill-opacity:1;fill-rule:nonzero;stroke:#ffffff;stroke-width:0.3985;stroke-linecap:butt;stroke-linejoin:miter;stroke-miterlimit:10;stroke-dasharray:none;stroke-opacity:1"
                             id="path82" />
                        </g>
                      </g>
                    </g>
                    <g
                       id="g84"
                       transform="translate(-6.435,-5.869)" />
                  </g>
                </g>
                <g
                   id="g86"
                   transform="translate(12.572,3.997)" />
              </g>
            </g>
          </g>
        </g>
      </g>
    </g>
  </g>
</svg>
